<?xml version="1.0" standalone="no"?>
<!DOCTYPE svg PUBLIC "-//W3C//DTD SVG 1.1//EN" "http://www.w3.org/Graphics/SVG/1.1/DTD/svg11.dtd" >
<!--
2013-9-30: Created.
-->
<svg>
<metadata>
Created by iconfont
</metadata>
<defs>

<font id="iconfont" horiz-adv-x="1024" >
  <font-face
    font-family="iconfont"
    font-weight="500"
    font-stretch="normal"
    units-per-em="1024"
    ascent="896"
    descent="-128"
  />
    <missing-glyph />
    
    <glyph glyph-name="x" unicode="x" horiz-adv-x="1001"
d="M281 543q-27 -1 -53 -1h-83q-18 0 -36.5 -6t-32.5 -18.5t-23 -32t-9 -45.5v-76h912v41q0 16 -0.5 30t-0.5 18q0 13 -5 29t-17 29.5t-31.5 22.5t-49.5 9h-133v-97h-438v97zM955 310v-52q0 -23 0.5 -52t0.5 -58t-10.5 -47.5t-26 -30t-33 -16t-31.5 -4.5q-14 -1 -29.5 -0.5
t-29.5 0.5h-32l-45 128h-439l-44 -128h-29h-34q-20 0 -45 1q-25 0 -41 9.5t-25.5 23t-13.5 29.5t-4 30v167h911zM163 247q-12 0 -21 -8.5t-9 -21.5t9 -21.5t21 -8.5q13 0 22 8.5t9 21.5t-9 21.5t-22 8.5zM316 123q-8 -26 -14 -48q-5 -19 -10.5 -37t-7.5 -25t-3 -15t1 -14.5
t9.5 -10.5t21.5 -4h37h67h81h80h64h36q23 0 34 12t2 38q-5 13 -9.5 30.5t-9.5 34.5q-5 19 -11 39h-368zM336 498v228q0 11 2.5 23t10 21.5t20.5 15.5t34 6h188q31 0 51.5 -14.5t20.5 -52.5v-227h-327z" />
    

    
    <glyph glyph-name="bianjiquedingiconA" unicode="&#58883;" d="M944.128 896H78.677333A78.72 78.72 0 0 1 0 817.322667v-865.450667c0-43.434667 35.242667-78.72 78.677333-78.72h865.450667a78.72 78.72 0 0 1 78.72 78.72V817.322667A78.72 78.72 0 0 1 944.128 896z m0-904.789333c0-21.76-17.621333-39.338667-39.338667-39.338667H118.058667a39.296 39.296 0 0 0-39.296 39.338667V777.941333c0 21.674667 17.536 39.296 39.296 39.296h786.730666c21.76 0 39.338667-17.621333 39.338667-39.296v-786.730666zM717.525333 569.429333l-286.805333-286.805333-130.133333 130.133333a37.717333 37.717333 0 0 1-53.333334-53.333333l151.125334-151.125333a39.808 39.808 0 0 1 35.413333-20.096 37.546667 37.546667 0 0 1 24.832 8.96c1.109333 0.938667 2.133333 1.877333 3.242667 2.944l312.533333 312.533333c15.786667 15.786667 15.872 41.386667 0.170667 57.045333a40.490667 40.490667 0 0 1-57.045334-0.256z"  horiz-adv-x="1024" />

    
    <glyph glyph-name="bianjiA" unicode="&#58886;" d="M509.805714 202.788571l64.146286 64.073143-84.077714 83.968-64.146286-64.073143v-30.939428h53.101714v-53.028572h30.976z m243.382857 397.824c-5.888 5.924571-11.995429 5.705143-18.249142-0.548571l-193.609143-193.389714c-6.290286-6.290286-6.473143-12.361143-0.548572-18.249143 5.888-5.851429 11.995429-5.668571 18.249143 0.585143l193.609143 193.389714c6.290286 6.253714 6.473143 12.324571 0.548571 18.212571z m44.251429-328.228571v-104.96c0-43.885714-15.542857-81.334857-46.738286-112.457143-31.158857-31.158857-68.681143-46.701714-112.566857-46.701714H177.883429c-43.885714 0-81.408 15.542857-112.566858 46.701714-31.158857 31.085714-46.738286 68.608-46.738285 112.420572V627.126857c0 43.849143 15.579429 81.334857 46.738285 112.457143C96.475429 770.706286 133.997714 786.285714 177.883429 786.285714H638.171429c23.259429 0 44.8-4.608 64.731428-13.787428 5.522286-2.56 8.850286-6.838857 9.947429-12.726857a17.152 17.152 0 0 0-5.010286-16.018286l-27.062857-27.062857a16.164571 16.164571 0 0 0-17.737143-4.461715 98.742857 98.742857 0 0 1-24.868571 3.291429H177.846857c-24.356571 0-45.202286-8.630857-62.537143-25.965714a85.101714 85.101714 0 0 1-25.965714-62.427429v-459.702857c0-24.356571 8.630857-45.165714 25.965714-62.464 17.334857-17.298286 38.180571-25.965714 62.537143-25.965714h460.214857c24.356571 0 45.202286 8.667429 62.537143 25.965714s25.965714 38.107429 25.965714 62.427429v69.632c0 4.790857 1.682286 8.850286 5.010286 12.178285l35.401143 35.364572a16.603429 16.603429 0 0 0 19.382857 3.876571c7.350857-2.962286 11.044571-8.301714 11.044572-16.054857zM744.411429 680.228571l159.305142-159.122285-371.712-371.346286h-159.341714v159.158857L744.374857 680.192z m245.577142-72.923428l-50.870857-50.834286-159.341714 159.158857 50.907429 50.834286a51.2 51.2 0 0 0 37.595428 15.469714 51.2 51.2 0 0 0 37.632-15.469714l84.041143-84.004571c10.349714-10.313143 15.506286-22.820571 15.506286-37.558858 0-14.738286-5.156571-27.245714-15.506286-37.558857h0.036571z"  horiz-adv-x="1024" />

    
    <glyph glyph-name="bianjiquxiaoiconB" unicode="&#58887;" d="M938.666667 810.666667v-853.333334H85.333333V810.666667h853.333334z m42.666666 85.333333H42.666667C19.2 896 0 876.8 0 853.333333v-938.666666c0-23.466667 19.2-42.666667 42.666667-42.666667h938.666666c23.466667 0 42.666667 19.2 42.666667 42.666667V853.333333c0 23.466667-19.2 42.666667-42.666667 42.666667z m-151.466666-253.866667l-60.8 60.8L512 443.733333 253.866667 701.866667 193.066667 641.066667 452.266667 384l-258.133334-258.133333 60.8-60.8L512 323.2l258.133333-258.133333 60.8 60.8-258.133333 258.133333 257.066667 258.133333z"  horiz-adv-x="1024" />

    
    <glyph glyph-name="biaoqian" unicode="&#58888;" d="M263.791513 834.24386V177.260921s131.831761 159.222049 335.147053 75.067308c78.779076-45.821136 153.910381-108.025248 274.734829-108.025248 120.888444 0 205.171177 75.067308 205.171177 75.067308V850.690832s-179.508781-184.820449-407.526529-27.454284C611.801762 867.137804 511.072058 907.327292 426.853322 885.44066c-84.282732-21.950628-163.061809-51.1968-163.061809-51.1968z m-145.206925-961.219924A54.588588 54.588588 0 0 0 63.996-72.32348V841.411412a54.588588 54.588588 0 0 0 109.177177 0v-913.798888c0-30.07812-24.382476-54.588588-54.588589-54.588588z"  horiz-adv-x="1087" />

    
    <glyph glyph-name="fasongA" unicode="&#58892;" d="M948.874578 895.424324C949.898003 895.104504-0.351482 352.49772 0.288158 352.113936c89.933412-34.604535 183.512774-69.336998 273.382223-103.941533 13.816228-104.005497 24.050472-198.928103 37.8667-302.869636h20.724342c41.512649 55.456806 83.025298 101.766756 124.537948 157.223562l41.448685 20.788307c76.117184-76.245112 192.979449-175.069523 269.032669-251.314636 0.63964 2.046849 183.065026 1022.400899 181.657817 1023.424324z m-243.894809-853.343994c0.447748-0.191892-205.772253 204.173153-206.731713 205.324505 89.933412 131.765882 179.866825 243.383097 269.736273 375.148978C629.694117 532.428509 395.457875 361.772503 395.905623 362.412143c-1.599101-0.191892-215.43082 0.191892-215.43082 0.703604-0.127928-0.95946 686.845649 407.003061 686.717721 407.450809 0 0-162.212755-729.189831-162.212755-728.486226z"  horiz-adv-x="1024" />

    
    <glyph glyph-name="daochuA" unicode="&#58893;" d="M1023.04768 141.888v-197.12c0-16.448-5.76-30.464-17.216-41.92a56.832 56.832 0 0 0-41.792-17.28H59.07968a56.832 56.832 0 0 0-41.792 17.28 57.088 57.088 0 0 0-17.216 41.856v197.184c0 16.448 5.76 30.4 17.216 41.92 11.52 11.52 25.408 17.28 41.792 17.28H345.03168l83.008-83.84c23.744-23.04 51.648-34.56 83.584-34.56 32 0 59.84 11.52 83.648 34.56l83.584 83.84h285.248c16.384 0 30.336-5.76 41.792-17.28 11.52-11.52 17.28-25.472 17.28-41.92z m-199.808 350.592c7.04-16.832 4.096-31.232-8.576-43.136l-275.456-276.032a36.48 36.48 0 0 0-27.648-11.712 36.48 36.48 0 0 0-27.648 11.712L208.45568 449.344c-12.672 11.904-15.552 26.24-8.576 43.136a36.736 36.736 0 0 0 36.288 24.064h157.376V792.576c0 10.688 3.84 19.904 11.648 27.712A37.76 37.76 0 0 0 432.90368 832h157.376a37.76 37.76 0 0 0 27.648-11.712 37.952 37.952 0 0 0 11.712-27.712V516.48h157.376c17.216 0 29.312-8.064 36.224-24.064z m-47.936-516.352a37.952 37.952 0 0 1 11.712 27.776 37.952 37.952 0 0 1-11.712 27.712 37.76 37.76 0 0 1-27.648 11.712 37.76 37.76 0 0 1-27.648-11.712 37.952 37.952 0 0 1-11.712-27.712c0-10.688 3.84-19.968 11.712-27.776a37.76 37.76 0 0 1 27.648-11.712 37.76 37.76 0 0 1 27.648 11.712z m157.44 0a37.952 37.952 0 0 1 11.648 27.776 37.952 37.952 0 0 1-11.712 27.712 37.76 37.76 0 0 1-27.648 11.712 37.76 37.76 0 0 1-27.648-11.712 37.952 37.952 0 0 1-11.712-27.712c0-10.688 3.904-19.968 11.712-27.776a37.76 37.76 0 0 1 27.648-11.712 37.76 37.76 0 0 1 27.648 11.712z"  horiz-adv-x="1024" />

    
    <glyph glyph-name="fuxuankuangB" unicode="&#58898;" d="M1012.3264 650.496l-70.9632 71.8336a37.9904 37.9904 0 0 1-54.2208 0l-364.544-369.1008-176.5888 178.8416a38.0416 38.0416 0 0 1-54.272 0L220.8768 460.1856a39.168 39.168 0 0 1 0-54.8864l273.9712-278.8352a37.9904 37.9904 0 0 1 54.2208 0l463.36 469.1456a39.168 39.168 0 0 1 0 54.8864zM817.2032 108.4928c0-49.7664-39.936-90.2144-89.088-90.2144H183.6544c-49.152 0-89.088 40.448-89.088 90.2144V659.9168c0 49.664 39.936 90.1632 89.088 90.1632h544.512v43.4176H183.6544c-72.7552 0-131.9936-59.904-131.9936-133.632v-551.424c0-73.6256 59.2384-133.632 131.9936-133.632h544.512c72.704 0 131.9424 60.0064 131.9424 133.632v217.9584h-42.8544v-217.9072z"  horiz-adv-x="1024" />

    
    <glyph glyph-name="bangzhuA" unicode="&#58903;" d="M511.808 896C229.312 896 0.384 666.688 0.384 384c0-282.752 228.928-512 511.36-512 282.56 0 511.488 229.248 511.488 512 0 282.688-228.928 512-511.424 512zM286.72 512.896s-16.768 228.544 224 228.544c240.704 0 226.112-226.368 226.112-226.368s1.92-71.296-79.552-134.144c-81.6-62.912-98.432-58.56-98.432-152.96H447.936S413.568 365.824 573.44 445.76c33.6 16.832 46.272 35.648 46.272 98.56 0 62.72-39.936 100.672-98.56 100.672-58.56 0-119.232-10.56-119.232-129.984l-115.2-2.176z m159.104-373.056h113.024v-113.216H445.888v113.28z"  horiz-adv-x="1024" />

    
    <glyph glyph-name="paixuiconA" unicode="&#58904;" d="M512 822.857143l292.571429-292.571429H219.428571zM512-54.857143l292.571429 292.571429H219.428571z"  horiz-adv-x="1024" />

    
    <glyph glyph-name="luruhejian" unicode="&#58906;" d="M605.952 726.848L0 130.88v-258.176h268.16l595.968 595.968-258.176 258.176zM228.672-47.744H179.2v89.6H89.6v49.536l99.648 99.584 139.072-139.136-99.584-99.584z m79.552 297.728c-9.984-9.984-19.968-9.984-30.016 0-9.984 10.048-9.984 20.032 0 30.08L585.92 597.76c10.048 9.984 20.032 9.984 30.08 0 9.984-9.984 9.984-20.032 0-39.488l-307.776-308.288z m685.056 357.76l-79.616-79.552-258.176 258.24L735.04 865.92c20.032 20.032 39.552 30.016 59.52 30.016 20.032 0 39.552-9.984 59.584-30.08l139.136-139.072c19.968-20.032 30.016-39.488 30.016-59.52 0-20.032-10.048-40.064-30.08-59.52z"  horiz-adv-x="1024" />

    
    <glyph glyph-name="qingchuB" unicode="&#58908;" d="M480 831.68a447.552 447.552 0 1 1 0-895.168 447.552 447.552 0 0 1 0 895.168z m217.536-586.048c21.76-21.76 21.76-57.344 0-79.168a56.128 56.128 0 0 0-79.168 0L480 304.896l-138.496-138.432a56.192 56.192 0 0 0-79.168 0 56.128 56.128 0 0 0 0 79.168L400.832 384 262.336 522.56a56.192 56.192 0 0 0 0 79.168 56.128 56.128 0 0 0 79.168 0L480 463.232l138.432 138.496a56.192 56.192 0 0 0 79.168 0c21.824-21.76 21.76-57.344 0-79.168L559.168 384l138.368-138.432z"  horiz-adv-x="1024" />

    
    <glyph glyph-name="quxiaoA" unicode="&#58909;" d="M0 512h1023.04v-260.864H0V512z"  horiz-adv-x="1024" />

    
    <glyph glyph-name="shezhiA" unicode="&#58915;" d="M972.224 493.632h-89.92c-8.448 18.24-20.48 56.192-35.904 83.264l63.552 61.76a50.112 50.112 0 0 1 0 71.68l-72.448 72.064a51.392 51.392 0 0 1-72.576-0.256l-60.032-63.616c-27.072 15.36-65.024 27.328-83.264 35.776V844.16c0 28.352-30.08 51.328-58.304 51.328H460.8c-28.352 0-58.432-23.04-58.432-51.328v-89.92c-18.24-8.448-56.192-20.48-83.264-35.904l-61.76 63.552a50.112 50.112 0 0 1-71.68 0L113.664 709.376a51.392 51.392 0 0 1 0.256-72.576l63.616-60.032c-15.36-27.072-27.328-65.024-35.776-83.264H51.84c-28.352 0-51.328-30.08-51.328-58.304v-102.528c0-28.352 23.04-58.368 51.328-58.368h89.92c8.448-18.304 20.608-56.256 35.904-83.328l-63.552-61.696a50.112 50.112 0 0 1 0-71.68l72.448-72.128a51.392 51.392 0 0 1 72.576 0.256l60.032 63.616c27.072-15.296 65.024-27.264 83.264-35.776v-89.92c0-28.352 30.08-51.328 58.304-51.328H563.2c28.352 0 58.368 23.04 58.368 51.328v90.048c18.304 8.448 56.32 20.608 83.328 35.904l61.76-63.552a50.112 50.112 0 0 1 71.68 0l72.064 72.448a51.392 51.392 0 0 1-0.256 72.576l-63.616 60.032c15.36 27.072 27.328 65.024 35.776 83.264h89.92c28.352 0 51.328 30.08 51.328 58.304V435.2c0 28.352-23.04 58.432-51.328 58.432zM512 153.344a230.72 230.72 0 1 0 0 461.44 230.72 230.72 0 0 0 0-461.44z"  horiz-adv-x="1024" />

    
    <glyph glyph-name="piliangchuliA" unicode="&#58917;" d="M343.424-30.4h339.2v94.208h-339.2v-94.208z m620.352 861.696H60.864a60.288 60.288 0 0 1-60.032-60.16v-560.832c0-33.088 27.008-60.16 60.032-60.16H963.84a60.288 60.288 0 0 1 60.096 60.16V771.136a60.288 60.288 0 0 1-60.096 60.16z m-361.28-620.992H429.504v60.16h172.992v-60.16z m361.28 120.32H60.864V771.2H963.84v-440.512z"  horiz-adv-x="1024" />

    
    <glyph glyph-name="shangchuanA" unicode="&#58919;" d="M511.36-127.36H59.712c-33.6 0-59.52 26.24-59.584 61.184a32640.32 32640.32 0 0 0 0 205.888 59.328 59.328 0 0 0 59.328 60.16c36.736 0.192 73.408 0.064 110.08 0.064 48.448 0 96.832-0.064 145.28 0.064 4.8 0 7.168-1.28 9.472-6.208 22.272-47.872 58.24-75.008 110.336-75.584 51.456-0.64 102.912-0.576 154.368 0 52.416 0.512 88.384 27.904 110.592 76.096 2.048 4.416 4.032 5.76 8.576 5.76 84.864-0.192 169.792-0.128 254.72-0.128 34.944 0 60.544-25.728 60.8-62.08 0.32-67.52 0.384-135.04 0-202.624-0.32-37.504-25.536-62.592-61.44-62.592H511.296z m394.496 163.712a40.384 40.384 0 0 1-39.552-40.192c-0.192-22.656 17.92-41.856 39.552-41.792 21.312 0.128 39.296 19.008 39.296 41.408a40.576 40.576 0 0 1-39.296 40.576z m-118.208-40.832a40.448 40.448 0 0 1-39.04 40.832 40.512 40.512 0 0 1-39.808-40.64c0.064-22.4 18.048-41.28 39.36-41.28 21.376-0.064 39.36 18.752 39.488 41.088zM630.08 527.424v-282.368c0-27.84-16.512-44.992-43.392-44.992H436.48c-25.856 0-42.688 17.6-42.688 44.48v282.88H237.632c-25.28 0.128-43.648 20.864-40.512 46.72 0.768 6.4 4.8 12.416 7.808 18.304 1.28 2.56 3.84 4.48 5.824 6.528L482.24 881.152c18.816 19.52 40.512 19.904 59.392 0.32 90.752-94.08 181.376-188.288 271.936-282.56 20.608-21.504 17.088-54.144-7.36-66.752a48.448 48.448 0 0 0-21.312-4.48c-49.216-0.384-98.432-0.256-147.648-0.256h-7.168z"  horiz-adv-x="1024" />

    
    <glyph glyph-name="kulian" unicode="&#58920;" d="M512 896C229.189818 896 0 666.810182 0 384s229.189818-512 512-512 512 229.189818 512 512S794.717091 896 512 896z m113.105455-320.884364a56.878545 56.878545 0 1 0 113.850181 0v-75.962181a56.925091 56.925091 0 0 0-113.850181 0V575.115636z m-341.736728 0a56.878545 56.878545 0 1 0 113.850182 0v-75.962181a56.925091 56.925091 0 0 0-113.850182 0V575.115636z m492.171637-429.009454a37.888 37.888 0 0 0-53.294546 6.516363 264.285091 264.285091 0 0 1-209.454545 102.120728 264.192 264.192 0 0 1-210.804364-103.842909 37.981091 37.981091 0 0 0-60.276364 46.173091 339.223273 339.223273 0 0 0 271.034182 133.585454 339.642182 339.642182 0 0 0 269.218909-131.304727 37.841455 37.841455 0 0 0-6.423272-53.248z"  horiz-adv-x="1024" />

    
    <glyph glyph-name="shengchengbaobiaoA" unicode="&#58921;" d="M513.024 832h441.344c50.432 0 68.352-17.28 68.352-67.84v-760.32c0-51.2-16.64-68.48-67.072-68.48H65.728C18.56-64.64 0.64-46.72 0 0.384V768.192c0 45.184 18.56 63.168 64.384 63.168C213.696 832 363.008 832 513.024 832zM320.576 175.296H66.368v-172.8h254.208v172.8z m316.544-173.504v172.8H384.256v-172.8h252.8z m63.68 1.28h254.208v172.16H700.8v-172.16zM67.008 407.296v-170.816h252.864v170.88h-252.8z m633.792-173.44c83.008 0 162.56 0 242.944 0.64 4.608 0 11.904 7.296 12.608 11.968 0.64 53.12 0.64 107.008 0.64 160.192h-255.488c-0.64-58.496-0.64-113.664-0.64-172.8z m-317.184 1.92h254.144v170.88H383.616v-170.88z m-63.744 230.016v172.16H65.024c0-53.76-0.64-104.96 0.64-156.16 0-5.312 10.688-15.36 16-15.36 78.272-0.64 157.248-0.64 238.208-0.64z m64.384 2.688h252.8V638.592h-252.8v-170.24z m570.752-0.64v171.52H701.44v-171.52h253.44z"  horiz-adv-x="1024" />

    
    <glyph glyph-name="shouqisousuomianbanA" unicode="&#58928;" d="M458.7008 706.9184c31.232 47.104 81.664 47.5136 113.152 0l392.7552-592.9984c31.232-47.2064 10.496-85.4016-46.0288-85.4016H111.9232c-56.6784 0-77.5168 37.888-46.08 85.4016L458.752 706.9184z"  horiz-adv-x="1024" />

    
    <glyph glyph-name="shouqierjimianbanA" unicode="&#58932;" d="M554.8544 615.168c-23.6544 33.2288-62.1568 33.024-85.6576 0l-304.1792-427.008C141.312 154.88 155.648 128 196.9152 128h630.2208c41.2672 0 55.3984 27.136 31.8976 60.16l-304.128 427.008z"  horiz-adv-x="1024" />

    
    <glyph glyph-name="sousuoA" unicode="&#58933;" d="M429.204062 183.236042c-74.947827 0-139.109243 26.687503-192.332328 79.910588-53.324366 53.324366-79.910588 117.384501-79.910588 192.332328s26.586222 139.007962 79.910588 192.332327C290.14546 701.03437 354.256236 727.721873 429.204062 727.721873s139.058602-26.687503 192.332328-79.910588C674.810115 594.48692 701.548259 530.376144 701.548259 455.428317s-26.687503-139.058602-79.961229-192.332328c-53.273725-53.223085-117.384501-79.910588-192.332327-79.910588z m560.943969-178.608773l-208.435982 208.385342c50.2353 72.517086 75.35295 153.339202 75.35295 242.466347a420.011671 420.011671 0 0 1-33.726522 166.151228 427.709015 427.709015 0 0 1-91.152762 136.729143 427.354532 427.354532 0 0 1-136.729143 91.152762A420.366154 420.366154 0 0 1 429.204062 883.187973 420.315514 420.315514 0 0 1 263.002193 849.410811a427.05069 427.05069 0 0 1-136.729143-91.152762A427.10133 427.10133 0 0 1 35.069647 621.680827a420.163592 420.163592 0 0 1-33.777162-166.151229c0-57.932644 11.242174-113.333267 33.777162-166.201869a427.405173 427.405173 0 0 1 91.152762-136.729143 427.303892 427.303892 0 0 1 136.729143-91.102122 420.720637 420.720637 0 0 1 166.20187-33.726522c89.127145 0 169.999901 25.11765 242.516987 75.35295l208.486623-207.828297c14.584442-15.394689 32.814994-23.092033 54.691657-23.092033 21.066416 0 39.296968 7.646704 54.691657 23.092033 15.394689 15.394689 23.092033 33.625241 23.092033 54.691657a74.441422 74.441422 0 0 1-22.484348 54.691657z"  horiz-adv-x="1024" />

    
    <glyph glyph-name="tishiqipaoB" unicode="&#58937;" d="M512-128A512 512 0 1 0 512 896a512 512 0 0 0 0-1024z m6.656 768c-56.32 0-100.032-17.152-131.2-51.52-31.296-32.896-46.08-76.544-46.08-131.264h61.632c0 38.336 8.576 67.904 25.792 89.856 18.752 25.792 47.68 38.208 86.72 38.208 32.832 0 58.624-8.512 76.544-27.264 17.216-17.152 26.496-41.408 26.496-72.64 0-21.952-7.744-42.24-23.36-61.696a346.24 346.24 0 0 0-26.56-28.16c-42.24-37.568-67.968-67.2-78.912-90.624a155.328 155.328 0 0 1-14.08-67.904v-17.92h62.528v17.92c0 21.056 4.736 39.808 14.848 56.96 7.808 14.08 19.456 28.16 36.736 43.008 34.368 30.4 55.424 50.688 63.232 60.096 19.52 25.792 29.696 56.32 29.696 91.392 0 46.912-14.848 83.648-43.776 110.08C608.448 626.752 568.64 640 518.592 640h0.064z m-11.776-475.648a44.736 44.736 0 0 1-33.6-13.312 41.92 41.92 0 0 1-13.312-32.768 44.8 44.8 0 0 1 13.312-33.6 48.256 48.256 0 0 1 33.6-13.312 47.872 47.872 0 0 1 33.536 13.312 43.008 43.008 0 0 1 14.08 33.6 44.736 44.736 0 0 1-13.312 32.768 46.528 46.528 0 0 1-34.304 13.312z"  horiz-adv-x="1024" />

    
    <glyph glyph-name="tianjiaguanlirenA" unicode="&#58941;" d="M602.794667 278.186667c-3.811556 0-30.321778 26.510222-11.377778 75.662222 41.699556 41.585778 75.832889 109.681778 75.832889 177.720889 0 102.115556-72.021333 155.079111-147.911111 155.079111-79.587556 0-147.797333-52.906667-147.797334-155.079111 0-68.039111 30.321778-136.135111 72.021334-177.720889 15.189333-41.585778-11.377778-71.850667-18.944-75.662222-83.399111-30.264889-178.176-83.171556-178.176-139.946667v-18.887111c0-71.850667 140.288-90.737778 272.952889-90.737778 128.910222 0 269.141333 15.132444 269.141333 90.737778v18.944c-3.754667 56.718222-102.343111 113.436444-185.742222 139.946667zM852.992 414.321778c-3.811556 0-26.510222 7.566222-11.377778 52.963555 37.888 37.831111 64.455111 102.115556 64.455111 166.4 0 94.549333-60.643556 147.512889-136.476444 147.512889-53.077333 0-102.4-26.510222-121.287111-79.416889 45.511111-37.831111 75.776-94.549333 75.776-170.211555 0-79.416889-37.888-155.022222-79.644445-204.231111 64.512-22.641778 163.043556-71.850667 189.610667-147.456 98.531556 3.754667 189.553778 26.453333 189.553778 83.171555v18.944c3.754667 56.718222-87.210667 105.870222-170.609778 132.323556z m-682.382222 0c3.811556 0 26.567111 7.566222 11.377778 52.963555C144.099556 505.173333 117.532444 569.457778 117.532444 633.742222c3.811556 94.549333 64.455111 147.512889 136.533334 147.512889 53.020444 0 102.286222-26.510222 121.287111-79.416889-45.511111-37.831111-75.832889-94.549333-75.832889-170.211555 0-79.416889 37.888-155.022222 79.644444-204.231111-64.512-22.641778-163.043556-71.850667-189.610666-147.456C91.022222 183.637333 0.056889 206.336 0.056889 263.054222v18.944C0 338.716444 91.022222 387.868444 170.609778 414.321778z"  horiz-adv-x="1024" />

    
    <glyph glyph-name="tianjiamisongA" unicode="&#58942;" d="M56.028498-127.936004h847.947004c30.71808 0 55.9965 22.654584 55.9965 50.55684V406.814574c0 27.902256-24.95844 50.300856-55.9965 50.300856h-54.012625V527.767015c0 94.906068-40.509468 200.243485-106.489344 263.791513C677.749641 855.04256 583.483532 896 480.257984 896h-0.511968C376.520467 896 282.254359 855.04256 216.530467 791.750516 150.550591 728.330479 110.041122 622.865071 110.041122 528.022999v-70.843573H56.028498c-30.974064 0-55.9965-22.654584-55.9965-50.300856v-484.32173c0-27.83826 24.95844-50.492844 55.9965-50.492844zM242.512843 527.767015c0 62.3961 24.766452 139.703269 70.267608 183.540528v0.703956a242.416849 242.416849 0 0 0 167.029561 67.451785h0.447972c62.268108 0 123.000312-24.95844 167.029561-67.451785v-0.447972l-0.31998-0.255984c45.75714-43.83726 70.267608-121.144428 70.267608-183.540528v-70.587589H242.512843V527.767015z"  horiz-adv-x="1024" />

    
    <glyph glyph-name="tianjiafujianA" unicode="&#58943;" d="M638.656 500.8a242.688 242.688 0 0 1-24.768 21.376 49.28 49.28 0 0 1-71.872-67.136c3.392-4.096 7.488-7.616 12.16-10.432 4.608-3.84 9.152-7.616 13.44-11.84l4.032-4.096c51.072-50.944 35.84-138.816-15.232-189.824L338.56 21.056a131.072 131.072 0 0 0-185.088 0l-4.096 4.096a130.88 130.88 0 0 0 0 184.96l96.256 96.256a53.376 53.376 0 0 1-33.216 95.36 53.248 53.248 0 0 1-30.08-9.216l-0.064 0.192-1.024-0.96a53.76 53.76 0 0 1-10.24-9.536L71.04 288.64a242.432 242.432 0 0 1 0-341.888l4.096-4.032a242.56 242.56 0 0 1 341.76 0l217.792 217.792c93.888 94.08 101.824 242.304 7.936 336.256l-3.968 4.032zM952.576 820.224l-4.096 4.032a242.368 242.368 0 0 1-341.76 0L388.864 606.464c-94.08-94.08-99.2-229.76-5.184-323.84l3.968-3.968c4.288-4.224 8.704-8.32 13.248-12.16a46.72 46.72 0 0 1 11.392-9.216l0.128-0.128a46.528 46.528 0 0 1 65.024 60.544c-6.144 13.824-17.664 22.272-25.6 30.208l-4.032 3.968c-51.072 51.008-31.68 125.184 19.392 176.192l217.92 217.792a130.88 130.88 0 0 0 184.96 0l4.032-3.968a131.008 131.008 0 0 0 0-185.152l-95.872-96a52.992 52.992 0 0 1 59.328-87.808l0.192-0.32 1.472 1.344a53.312 53.312 0 0 1 12.096 11.2l101.12 93.248a242.304 242.304 0 0 1 0 341.76z"  horiz-adv-x="1024" />

    
    <glyph glyph-name="tianjiaA" unicode="&#58948;" d="M958.976 512h-319.36V831.36A63.872 63.872 0 0 1 575.616 895.36H448A63.872 63.872 0 0 1 384 831.36V512H64.64A63.872 63.872 0 0 1 0.64 448v-127.744c0-35.328 28.608-63.936 63.872-63.936H384v-319.36c0-35.392 28.608-64 63.936-64h127.744a63.872 63.872 0 0 1 63.872 64v319.36h319.488a63.872 63.872 0 0 1 63.872 63.936V448a63.872 63.872 0 0 1-63.936 63.872z"  horiz-adv-x="1024" />

    
    <glyph glyph-name="tuichudengluA" unicode="&#58951;" d="M1014.305818 410.203087l-170.592014 213.080047a42.552021 42.552021 0 0 1-75.889771-26.619009v-127.912016H426.831969a85.232019 85.232019 0 1 1 0-170.464038h340.992064v-127.912017a42.616009 42.616009 0 0 1 75.889771-26.682996l170.592014 213.080047a42.93595 42.93595 0 0 1 0 53.429982zM597.232019 42.592014h-341.695932c-46.711242 0-84.528151 38.072861-84.528151 85.168031V640.047991c0 46.711242 38.072861 84.464163 85.168031 84.464163h341.056052a85.359995 85.359995 0 0 1 0 170.592014H171.007936A170.592014 170.592014 0 0 1 0.415922 724.512154v-681.92014a170.592014 170.592014 0 0 1 170.592014-170.592014h426.224083a85.232019 85.232019 0 1 1 0 170.592014z"  horiz-adv-x="1024" />

    
    <glyph glyph-name="xiazaikehuduanB" unicode="&#58955;" d="M677.0688 894.8224H264.0384A103.2704 103.2704 0 0 1 160.768 791.552v-757.248c0-57.0368 46.2336-103.2704 103.2704-103.2704h413.0304a103.2704 103.2704 0 0 1 103.2704 103.2704V791.552A103.2704 103.2704 0 0 1 677.0688 894.8224zM470.528-17.3056c-34.4576 0-62.3616 28.672-62.3616 64 0 35.2256 27.9552 63.8976 62.3616 63.8976 34.4064 0 62.3616-28.672 62.3616-63.9488 0-35.328-27.904-64-62.3616-64z m247.3984 192.1536H223.232V803.0208h494.7456v-628.224z"  horiz-adv-x="1024" />

    
    <glyph glyph-name="yonghuxiangqingxialaA" unicode="&#58957;" d="M732.818286 602.624h-437.394286s-145.773714 19.675429-33.499429-134.144l189.44-263.168a67.072 67.072 0 0 1 123.245715 4.388571l185.856 258.779429c112.274286 153.088-27.648 134.144-27.648 134.144z"  horiz-adv-x="1024" />

    
    <glyph glyph-name="xiaolian" unicode="&#58959;" d="M511.348364 895.674182c70.749091 0 137.355636-13.451636 199.307636-40.354909a519.773091 519.773091 0 0 0 162.490182-109.288728 514.699636 514.699636 0 0 0 109.847273-162.443636c26.903273-62.557091 40.354909-128.605091 40.354909-198.749091 0-70.749091-13.451636-137.355636-40.308364-199.307636a521.402182 521.402182 0 0 0-109.893818-162.490182 521.402182 521.402182 0 0 0-162.490182-109.893818c-61.952-26.903273-128.605091-40.354909-199.307636-40.354909-70.144 0-136.192 13.498182-198.749091 40.354909a514.699636 514.699636 0 0 0-162.443637 109.847273 519.773091 519.773091 0 0 0-109.335272 162.536727C13.963636 247.435636 0.512 314.088727 0.512 384.837818c0 70.144 13.451636 136.192 40.308364 198.749091a513.163636 513.163636 0 0 0 109.288727 162.443636A513.163636 513.163636 0 0 0 312.599273 855.319273a497.152 497.152 0 0 0 198.749091 40.354909z m185.856-253.672727c-22.807273 0-42.077091-9.309091-57.856-28.06691-15.778909-18.711273-23.970909-41.472-23.970909-68.980363 0-26.298182 8.192-49.058909 23.970909-67.770182 15.825455-18.711273 35.048727-28.066909 57.856-28.066909 22.807273 0 41.518545 9.355636 57.250909 28.066909 15.825455 18.711273 23.412364 41.472 23.412363 67.770182 0 27.461818-7.586909 50.269091-23.365818 68.980363-15.825455 18.711273-34.490182 28.066909-57.250909 28.06691z m-378.740364-2.327273c-21.643636 0-40.308364-9.355636-56.087273-28.066909-15.825455-18.711273-23.412364-41.518545-23.412363-67.816728 0-27.461818 7.586909-50.269091 23.412363-68.933818 15.778909-18.711273 34.443636-28.066909 56.087273-28.066909 21.643636 0 40.308364 9.309091 55.528727 28.066909 15.173818 18.664727 22.807273 41.472 22.807273 68.933818 0 26.298182-7.633455 49.105455-22.807273 67.816728-15.220364 18.711273-33.885091 28.066909-55.528727 28.066909z m482.769455-400.989091a24.203636 24.203636 0 0 1 1.210181 8.192 52.130909 52.130909 0 0 1-1.768727 12.846545 31.092364 31.092364 0 0 1-6.981818 12.893091 33.326545 33.326545 0 0 1-14.661818 9.309091c-18.106182-21.597091-40.308364-41.425455-66.606546-58.414545-22.807273-14.615273-51.432727-28.066909-85.922909-40.354909-34.490182-12.241455-75.403636-18.106182-122.181818-18.106182-46.731636 0-86.481455 5.864727-119.202909 18.152727a439.761455 439.761455 0 0 0-83.037091 40.308364 301.754182 301.754182 0 0 0-65.442909 58.461091c-6.423273-1.768727-11.124364-4.096-14.010182-8.192a55.016727 55.016727 0 0 1-7.028364-12.846546 36.631273 36.631273 0 0 1-1.163636-22.202182c0.558545-0.605091 1.163636-1.210182 0.558546-1.768727-0.558545-0.605091 0-1.163636 0.60509-1.768727 6.981818-21.038545 19.269818-40.913455 37.422546-59.019637 18.106182-18.152727 39.703273-34.490182 65.442909-47.941818 25.739636-13.451636 54.923636-23.970909 87.086545-31.557818 32.116364-7.586909 66.653091-11.124364 102.30691-11.124364 70.749091 0 132.096 12.893091 183.528727 38.632728 51.432727 25.693091 86.481455 59.578182 105.192727 101.655272 0 1.768727 0.605091 2.932364 1.163636 4.654546 0.605091 1.768727 1.768727 4.142545 3.49091 8.192z"  horiz-adv-x="1024" />

    
    <glyph glyph-name="yonghuA" unicode="&#58961;" d="M760.128-127.232h-581.76c-105.92 0-177.792 64.576-177.792 172.416 0 150.4 35.264 381.44 230.4 381.44 20.608 0 107.776-92.544 238.272-92.544 130.496 0 217.664 92.544 238.336 92.544 195.008 0 230.336-231.04 230.336-381.44 0-107.84-71.936-172.416-177.792-172.416zM469.248 384a255.68 255.68 0 0 0 0 511.232 255.68 255.68 0 0 0 0-511.232z"  horiz-adv-x="1024" />

    
    <glyph glyph-name="zhankaierjimianbanA" unicode="&#58964;" d="M554.8544 152.832c-23.6544-33.2288-62.1568-33.024-85.6576 0l-304.1792 427.008C141.312 613.12 155.648 640 196.9152 640h630.2208c41.2672 0 55.3984-27.136 31.8976-60.16l-304.128-427.008z"  horiz-adv-x="1024" />

    
    <glyph glyph-name="zhankaisousuomianbanA" unicode="&#58967;" d="M458.7008 64c31.232-47.1552 81.664-47.5136 113.152 0L964.608 656.9984c31.232 47.1552 10.496 85.4016-46.0288 85.4016H111.9232c-56.6784 0-77.5168-37.888-46.08-85.4016L458.752 64z"  horiz-adv-x="1024" />

    
    <glyph glyph-name="zhankaitubiao" unicode="&#58970;" d="M975.325867-4.130133000000001H47.957333C21.504-4.130133000000001 0 16.62293299999999 0 42.12053300000002V781.5168C0 807.048533 21.504 827.733333 47.957333 827.733333c26.487467 0 47.991467-20.6848 47.991467-46.216533v-693.179733h879.377067c26.487467 0 47.991467-20.718933 47.991466-46.216534 0-25.4976-21.504-46.250667-47.991466-46.250666z m-111.9232 138.717866h-95.914667c-26.487467 0-47.991467 20.650667-47.991467 46.1824v323.4816c0 25.531733 21.504 46.216533 47.991467 46.216534h95.914667c26.487467 0 47.991467-20.6848 47.991466-46.216534v-323.4816c0-25.531733-21.504-46.1824-47.991466-46.1824z m-271.803734 0h-95.914666c-26.487467 0-47.991467 20.650667-47.991467 46.1824V689.1178669999999c0 25.4976 21.504 46.1824 47.957333 46.1824h95.9488c26.487467 0 47.957333-20.6848 47.957334-46.1824v-508.347734c0-25.531733-21.504-46.1824-47.957334-46.1824z m-271.803733 0h-95.914667c-26.5216 0-47.991467 20.650667-47.991466 46.1824v92.398934c0 25.531733 21.504 46.216533 47.957333 46.216533h95.914667c26.487467 0 47.991467-20.6848 47.991466-46.216533v-92.398934c0-25.531733-21.504-46.1824-47.957333-46.1824z"  horiz-adv-x="1024" />

    
    <glyph glyph-name="zhongxinshengchengA" unicode="&#58972;" d="M1024 512.448h-384l143.488 143.36A381.696 381.696 0 0 1 512 768.192a381.696 381.696 0 0 1-271.552-112.384A380.8 380.8 0 0 1 128 384.64c0-102.4 39.936-198.784 112.448-271.168a381.696 381.696 0 0 1 271.488-112.32 381.632 381.632 0 0 1 288.96 130.944l96.32-84.16a510.848 510.848 0 0 0-385.28-174.592C229.248-126.72 0 102.208 0 384.64 0 667.008 229.248 896 512 896c141.376 0 269.312-57.216 361.984-149.76L1023.936 896v-383.552z"  horiz-adv-x="1024" />

    
    <glyph glyph-name="duigou" unicode="&#58978;" d="M138.368 470.528c-20.736 0-39.936-8.256-54.144-23.104-13.952-14.528-21.312-33.536-20.8-53.504 0.448-19.968 8.64-38.592 23.104-52.416l312.576-298.816c15.424-14.656 36.224-22.208 57.728-20.544 21.184 1.856 40.832 12.544 53.76 29.696l434.88 575.04c24.96 33.024 18.304 80-14.656 104.832-32.064 24.128-80.832 17.28-104.832-14.656L441.856 209.024 190.08 449.792c-14.016 13.376-32.384 20.736-51.712 20.736"  horiz-adv-x="1024" />

    
    <glyph glyph-name="guanbi-" unicode="&#58979;" d="M849.1 813.906L511.057 475.87 173.464 813.906a63.607 63.607 0 0 1-90.201 0 63.607 63.607 0 0 1 0-90.201L420.858 386.11 83.262 48.071a63.606 63.606 0 0 1 0-90.201 63.603 63.603 0 0 1 90.201 0l337.594 337.588L848.65-42.13a63.608 63.608 0 0 1 90.205 0 63.606 63.606 0 0 1 0 90.2L601.262 385.663l337.594 337.594a63.607 63.607 0 0 1 0 90.201c-24.563 25.454-64.751 25.454-89.757 0.448z m0 0"  horiz-adv-x="1024" />

    
    <glyph glyph-name="zhankai-" unicode="&#58980;" d="M300.8 384l416-409.6-76.8-76.8L140.8 384 633.6 870.4l76.8-76.8L300.8 384z"  horiz-adv-x="1024" />

    
    <glyph glyph-name="guanbi-1" unicode="&#58981;" d="M63.972 831.979v-895.441H959.43V831.978H63.972z m674.18-628.594L692.564 157.8 512.267 338.1l-180.3-180.3-45.587 45.585 180.3 180.3-181.494 181.493 45.586 45.587L512.266 429.27l181.492 181.494 45.586-45.587-181.493-181.493 180.3-180.3z"  horiz-adv-x="1024" />

    
    <glyph glyph-name="quxiao" unicode="&#58982;" d="M591.313991 386.45394l389.244954-393.559954c33.883996-33.881996 55.452994-67.259992 21.554998-101.156988-33.880996-33.897996-67.276992-12.329999-101.155989 21.552997L520.323999 311.163949 119.960046-89.196005c-34.162996-34.149996-67.981992-55.719993-102.130988-21.569997-34.165996 34.163996-12.596999 67.967992 21.552997 102.131988l391.749954 396.063954L41.885055 772.362894C7.988059 806.243891-13.564938 839.637887 20.330058 873.519883c33.881996 33.896996 67.275992 12.342999 101.156988-21.552998l397.873953-380.633955 385.861955 385.859955c34.149996 34.164996 67.967992 55.719993 102.133988 21.569997 34.147996-34.148996 8.280999-67.983992-25.884997-102.132988L591.313991 386.45394z"  horiz-adv-x="1024" />

    
    <glyph glyph-name="paixu" unicode="&#58983;" d="M176.833 484.55h670.335L512.001 886.748 176.834 484.55z m670.334-201.1H176.832l335.167-402.198L847.166 283.45z"  horiz-adv-x="1024" />

    
    <glyph glyph-name="dianjizhankaigengduoshuangjiantou" unicode="&#58984;" d="M797.614 395.674L511.631 139.94 224.666 392.745a46.08 46.08 0 1 1-59.474-70.4L483.43 43.121a46.08 46.08 0 0 1 61.195 1.536l315.904 283.648a46.08 46.08 0 1 1-62.915 67.369zM165.192 650.025L483.43 370.801a46.08 46.08 0 0 1 61.195 1.536l315.904 283.648a46.08 46.08 0 1 1-62.915 67.338L511.631 467.62 224.666 720.425a46.08 46.08 0 1 1-59.474-70.4z"  horiz-adv-x="1024" />

    
    <glyph glyph-name="shengxu" unicode="&#58985;" d="M512 896L204.8 452.267h614.4zM819.2 315.733H204.8L512-128l307.2 443.733z"  horiz-adv-x="1024" />

    
    <glyph glyph-name="gengduo-shouqi" unicode="&#58986;" d="M534.784 794.496c-4.352 4.224-10.368 6.592-16.576 6.592-6.272 0-12.224-2.368-16.64-6.592m0.064 0l-446.4-427.52c-19.648-18.752-18.432-50.048 1.152-68.8 19.52-18.688 51.136-18.816 70.848-0.064l391.04 374.144 391.04-374.144c19.648-18.752 51.264-18.624 70.784 0.064 19.584 18.752 20.8 50.048 1.152 68.8l-446.4 427.52m-0.32-331.712c-4.352 4.224-10.368 6.592-16.576 6.592-6.272 0-12.224-2.368-16.64-6.592m0 0l-446.4-427.52c-19.584-18.752-18.368-50.048 1.216-68.8 19.52-18.688 51.136-18.816 70.784-0.064l391.04 374.144L908.992-33.6c19.648-18.752 51.264-18.624 70.784 0.064 19.584 18.752 20.8 50.048 1.152 68.8l-446.4 427.52"  horiz-adv-x="1024" />

    
    <glyph glyph-name="jiangxu-" unicode="&#58987;" d="M512-128l307.2 443.733H204.8zM204.8 452.267h614.4L512 896 204.8 452.267z"  horiz-adv-x="1024" />

    
    <glyph glyph-name="guanbi" unicode="&#58988;" d="M0-128V896h1024v-1024H0zM984.617 856.617H39.383v-945.234h945.234V856.617zM266.004 171.08L476.078 369.54 267.694 568.064a23.296 23.296 0 0 0 0.082 34.079c9.923 9.4 26 9.349 35.84-0.041l208.425-198.554 210.227 198.615a26.225 26.225 0 0 0 35.85-0.092c9.882-9.42 9.841-24.658-0.122-34.038L547.809 369.398l210.268-200.325a23.214 23.214 0 0 0-0.04-34.038 26.102 26.102 0 0 0-17.89-7.035 25.979 25.979 0 0 0-17.96 7.076l-210.3 200.386L301.732 136.92a25.856 25.856 0 0 0-17.89-7.004 26.112 26.112 0 0 0-17.96 7.076 23.245 23.245 0 0 0 0.122 34.089z"  horiz-adv-x="1024" />

    
    <glyph glyph-name="gengduo" unicode="&#58989;" d="M746.343 348.077L349.508-48.769h0.002c-19.842-19.842-52.01-19.842-71.85-0.002-19.842 19.842-19.842 52.01-0.002 71.85L638.57 384.002 277.659 744.92c-19.842 19.842-19.842 52.008 0 71.85 19.84 19.842 52.008 19.842 71.85 0l396.836-396.842c19.837-19.843 19.837-52.009-0.002-71.851z"  horiz-adv-x="1024" />

    
    <glyph glyph-name="shouqi-" unicode="&#58990;" d="M65.1 561.2l434.1-430.3c7.9-1.4 17.5-1.5 25.5 0l434.2 430.3c1.5 3.3 1.5 12.7 0 25.3l-51.1 50.6c-13.3 1.4-23 1.5-25.5 0L524.8 282.8c-7.9-5.1-17.6-5.2-25.5 0L141.8 637.1c-2.5 1.4-12.1 1.6-25.5 0l-51.1-50.6c-1.5-12.6-1.6-22-0.1-25.3z"  horiz-adv-x="1024" />

    
    <glyph glyph-name="zhankai-1" unicode="&#58991;" d="M911.2 228H400.8c-24.8 0-44.8 21.6-44.8 48s20 48 44.8 48h510.4c24.8 0 44.8-21.6 44.8-48s-20-48-44.8-48z m0 224H400.8c-24.8 0-44.8 21.6-44.8 48s20 48 44.8 48h510.4c24.8 0 44.8-21.6 44.8-48s-20-48-44.8-48zM908 668H126.4c-26.4 0-49.6 20-50.4 46.4-0.8 27.2 20.8 49.6 48 49.6h781.6c26.4 0 49.6-20 50.4-46.4 0.8-27.2-20.8-49.6-48-49.6zM76 228.8V547.2L299.2 388 76 228.8c0-0.8 0-0.8 0 0zM124 108h781.6c26.4 0 49.6-20 50.4-46.4 0.8-27.2-20.8-49.6-48-49.6H126.4c-26.4 0-49.6 20-50.4 46.4-0.8 27.2 20.8 49.6 48 49.6z"  horiz-adv-x="1024" />

    
    <glyph glyph-name="jiangxu-1" unicode="&#58992;" d="M87.04 748.16c-14.72 0-25.6-11.52-25.6-25.6 0-14.72 11.52-25.6 25.6-25.6H505.6c14.72 0 25.6 11.52 25.6 25.6 0 14.72-11.52 25.6-25.6 25.6H87.04z m73.6-222.08c-14.72 0-25.6-11.52-25.6-25.6 0-14.72 11.52-25.6 25.6-25.6H505.6c14.72 0 25.6 11.52 25.6 25.6 0 14.72-11.52 25.6-25.6 25.6H160.64z m76.16-227.84c-14.72 0-25.6-11.52-25.6-25.6s11.52-25.6 25.6-25.6h268.8c14.72 0 25.6 11.52 25.6 25.6s-11.52 25.6-25.6 25.6H236.8z m76.16-227.84c-14.72 0-25.6-11.52-25.6-25.6 0-14.72 11.52-25.6 25.6-25.6H505.6c14.72 0 25.6 11.52 25.6 25.6 0 14.72-11.52 25.6-25.6 25.6H312.96z m309.76 48c-8.96 0-12.8-10.24-7.04-16.64l157.44-157.44c3.84-3.84 10.24-3.84 14.08 0l157.44 157.44c6.4 6.4 1.92 16.64-6.4 16.64h-131.2V801.92c0 14.72-11.52 25.6-25.6 25.6-14.72 0-25.6-11.52-25.6-25.6V118.4H622.72z"  horiz-adv-x="1024" />

    
    <glyph glyph-name="xiala" unicode="&#58993;" d="M919.8 514.9L555.2 116.2a57.377 57.377 0 0 0-43.1-19.5c-16.5 0-32.2 7.1-43.1 19.5L104.4 514.9c-17.8 18.8-23.3 46.2-14.1 70.4s31.4 41.1 57.2 43.4h728.9c25.9-2.2 48.2-19 57.4-43.3 9.3-24.3 3.8-51.6-14-70.5z"  horiz-adv-x="1024" />

    
    <glyph glyph-name="jinyong" unicode="&#58994;" d="M512 742.4c-197.12 0-358.4-161.28-358.4-358.4S314.88 25.6 512 25.6 870.4 186.88 870.4 384 709.12 742.4 512 742.4z m0-627.2c-147.866 0-268.8 120.934-268.8 268.8 0 31.334 4.454 62.72 17.92 94.106L718.08 213.76C668.826 151.04 597.094 115.2 512 115.2z m250.88 174.694L305.92 554.24C355.226 616.96 426.854 652.8 512 652.8c147.866 0 268.8-120.934 268.8-268.8 0-31.334-4.506-62.72-17.92-94.106z"  horiz-adv-x="1024" />

    
    <glyph glyph-name="jiangxu" unicode="&#58995;" d="M936.96 19.84c14.72 0 25.6 11.52 25.6 25.6 0 14.72-11.52 25.6-25.6 25.6H518.4c-14.72 0-25.6-11.52-25.6-25.6 0-14.72 11.52-25.6 25.6-25.6h418.56z m-73.6 222.08c14.72 0 25.6 11.52 25.6 25.6 0 14.72-11.52 25.6-25.6 25.6H518.4c-14.72 0-25.6-11.52-25.6-25.6 0-14.72 11.52-25.6 25.6-25.6h344.96zM787.2 469.76c14.72 0 25.6 11.52 25.6 25.6s-11.52 25.6-25.6 25.6H518.4c-14.72 0-25.6-11.52-25.6-25.6s11.52-25.6 25.6-25.6h268.8zM711.04 697.6c14.72 0 25.6 11.52 25.6 25.6 0 14.72-11.52 25.6-25.6 25.6H518.4c-14.72 0-25.6-11.52-25.6-25.6 0-14.72 11.52-25.6 25.6-25.6h192.64z m-309.76-48c8.96 0 12.8 10.24 7.04 16.64L250.88 823.68c-3.84 3.84-10.24 3.84-14.08 0L79.36 666.24c-6.4-6.4-1.92-16.64 6.4-16.64h131.2v-683.52c0-14.72 11.52-25.6 25.6-25.6 14.72 0 25.6 11.52 25.6 25.6V649.6h133.12z"  horiz-adv-x="1024" />

    
    <glyph glyph-name="shouqi" unicode="&#58996;" d="M716.8 546.688L831.232 661.12l-48.192 48.192-114.432-114.496-108.416 108.416v-277.12h277.056L716.8 546.688zM307.2 221.376L192.768 106.88l48.192-48.128L355.456 173.12l114.432-114.368V335.808h-277.12L307.2 221.376zM82.24 257.472H0V-128h385.472v82.24H82.24V257.472z m0 556.288h303.232V896H0v-385.472h82.24V813.76z m859.52-859.52H638.528V-128H1024V257.472h-82.24V-45.76zM638.528 896v-82.24H941.76v-303.232H1024V896H638.528z"  horiz-adv-x="1024" />

    
    <glyph glyph-name="shouqi_" unicode="&#58997;" d="M269.163 226.218c-24.407 0-44.13 21.325-44.13 47.334s19.723 47.335 44.13 47.335h503.301c24.407 0 44.13-21.325 44.13-47.335s-19.723-47.334-44.13-47.334h-503.3z m0 220.895c-24.407 0-44.13 21.325-44.13 47.335s19.723 47.334 44.13 47.334h503.301c24.407 0 44.13-21.325 44.13-47.334s-19.723-47.335-44.13-47.335h-503.3z m3.205 213.006c-26.872 0-48.198 22.065-47.335 48.937 0.74 26.01 23.668 45.733 49.677 45.733h770.792c26.749 0 48.074-22.065 47.334-48.938-0.74-26.01-23.667-45.732-49.676-45.732H272.368z m580.097-290.541l182.559-116.981c11.217-7.15 25.886 0.863 25.886 14.176V500.488c0 13.313-14.669 21.325-25.886 14.176l-182.56-116.858c-10.354-6.533-10.354-21.695 0-28.228z m193.037-261.697c26.749 0 48.074-22.065 47.334-48.937-0.74-26.01-23.667-45.733-49.676-45.733H272.368c-26.872 0-48.074 22.065-47.335 48.938 0.74 26.01 23.668 45.732 49.677 45.732h770.792z"  horiz-adv-x="1448" />

    


  </font>
</defs>
</svg>
