<?xml version="1.0" encoding="UTF-8"?>
<svg width="20px" height="20px" viewBox="0 0 20 20" version="1.1" xmlns="http://www.w3.org/2000/svg" xmlns:xlink="http://www.w3.org/1999/xlink">
    <!-- Generator: Sketch 43.1 (39012) - http://www.bohemiancoding.com/sketch -->
    <title>复选框B</title>
    <desc>Created with Sketch.</desc>
    <defs></defs>
    <g id="Page-1" stroke="none" stroke-width="1" fill="none" fill-rule="evenodd">
        <g id="Artboard" transform="translate(-76.000000, -38.000000)" fill-rule="nonzero" fill="#0099EC">
            <g id="复选框B" transform="translate(77.000000, 40.000000)">
                <path d="M18.7724187,2.79511718 L17.3855758,1.39162236 C17.0933003,1.09565879 16.6192948,1.09565879 16.3270193,1.39162236 L9.20772451,8.60075196 L5.75820385,5.10770351 C5.46592836,4.81173995 4.99192286,4.81173995 4.69880992,5.10770351 L3.31280441,6.51204637 C3.02052893,6.80800994 3.02052893,7.28799668 3.31280441,7.58396025 L8.66420937,13.030029 C8.95648486,13.3259925 9.43049036,13.3259925 9.72276585,13.030029 L18.7724187,3.86703106 C19.0646942,3.57106749 19.0646942,3.09108075 18.7724187,2.79511718 Z" id="Shape"></path>
                <path d="M14.9611129,13.3811147 C14.9611129,14.3529607 14.180595,15.1433275 13.2208595,15.1433275 L2.58672177,15.1433275 C1.62698623,15.1433275 0.846468333,14.3529607 0.846468333,13.3811147 L0.846468313,2.61194202 C0.846468313,1.64009606 1.62698621,0.849729193 2.58672175,0.849729193 L13.221697,0.849729193 L13.221697,0.00169605963 L2.58672177,0.00169605963 C1.16554271,0.00169605963 0.00900276136,1.17282981 0.00900276136,2.61194202 L0.00900276136,13.3811147 C0.00900276136,14.8202269 1.16554271,15.9913607 2.58672177,15.9913607 L13.221697,15.9913607 C14.642876,15.9913607 15.799416,14.8202269 15.799416,13.3811147 L15.799416,9.12483643 L14.9619504,9.12483643 L14.9619504,13.3811147 L14.9611129,13.3811147 Z" id="Shape"></path>
            </g>
        </g>
    </g>
</svg>