<?xml version="1.0" encoding="UTF-8"?>
<svg width="20px" height="20px" viewBox="0 0 20 20" version="1.1" xmlns="http://www.w3.org/2000/svg" xmlns:xlink="http://www.w3.org/1999/xlink">
    <!-- Generator: Sketch 43.1 (39012) - http://www.bohemiancoding.com/sketch -->
    <title>复选框C</title>
    <desc>Created with Sketch.</desc>
    <defs></defs>
    <g id="Page-1" stroke="none" stroke-width="1" fill="none" fill-rule="evenodd">
        <g id="Artboard" transform="translate(-117.000000, -38.000000)" fill-rule="nonzero" fill="#E6E5E5">
            <g id="复选框C" transform="translate(118.000000, 40.000000)">
                <path d="M18.6788209,2.62546749 L17.291978,1.22197268 C16.9997025,0.926009108 16.525697,0.926009108 16.2334215,1.22197268 L9.11412671,8.43110228 L5.66460605,4.93805383 C5.37233056,4.64209026 4.89832506,4.64209026 4.60521212,4.93805383 L3.21920662,6.34239669 C2.92693113,6.63836025 2.92693113,7.118347 3.21920662,7.41431056 L8.57061158,12.8603793 C8.86288706,13.1563429 9.33689257,13.1563429 9.62916806,12.8603793 L18.6788209,3.69738137 C18.9710964,3.4014178 18.9710964,2.92143106 18.6788209,2.62546749 Z" id="Shape"></path>
                <path d="M14.9521102,13.3794186 C14.9521102,14.3512646 14.1715923,15.1416315 13.2118567,15.1416315 L2.57771901,15.1416315 C1.61798347,15.1416315 0.837465571,14.3512646 0.837465571,13.3794187 L0.837465552,2.61024596 C0.837465552,1.6384 1.61798345,0.848033133 2.57771899,0.848033133 L13.2126942,0.848033133 L13.2126942,5.64903541e-16 L2.57771901,0 C1.15653995,0 0,1.17113375 0,2.61024596 L0,13.3794186 C0,14.8185308 1.15653995,15.9896646 2.57771901,15.9896646 L13.2126942,15.9896646 C14.6338733,15.9896646 15.7904132,14.8185308 15.7904132,13.3794186 L15.7904132,9.12314037 L14.9529477,9.12314037 L14.9529477,13.3794186 L14.9521102,13.3794186 Z" id="Shape"></path>
            </g>
        </g>
    </g>
</svg>